HIERARCHY
ROOT mixamorig:Hips
{
	OFFSET 0.00 0.00 0.00
	CHANNELS 6 Xposition Yposition Zposition Zrotation Yrotation Xrotation
	JOINT mixamorig:Spine
	{
		OFFSET	0.0000	9.9235	-1.2273
		CHANNELS 3 Zrotation Yrotation Xrotation
		JOINT mixamorig:Spine1
		{
			OFFSET	-0.0001	11.6455	-1.4224
			CHANNELS 3 Zrotation Yrotation Xrotation
			JOINT mixamorig:Spine2
			{
				OFFSET	0.0001	13.3602	-1.6265
				CHANNELS 3 Zrotation Yrotation Xrotation
				JOINT mixamorig:Neck
				{
					OFFSET	0.0000	15.0325	0.7929
					CHANNELS 3 Zrotation Yrotation Xrotation
					JOINT mixamorig:Head
					{
						OFFSET	-0.0000	10.3218	3.1424
						CHANNELS 3 Zrotation Yrotation Xrotation
						JOINT mixamorig:HeadTop_End
						{
							OFFSET	0.0002	18.4747	6.6364
							CHANNELS 3 Zrotation Yrotation Xrotation
							End Site
							{
								OFFSET 0.0000 0.0000 0.0000
							}
						}
						JOINT mixamorig:LeftEye
						{
							OFFSET	2.9479	7.6817	9.1207
							CHANNELS 3 Zrotation Yrotation Xrotation
							End Site
							{
								OFFSET 0.0000 0.0000 0.0000
							}
						}
						JOINT mixamorig:RightEye
						{
							OFFSET	-2.9445	7.6817	9.1205
							CHANNELS 3 Zrotation Yrotation Xrotation
							End Site
							{
								OFFSET 0.0000 0.0000 0.0000
							}
						}
					}
				}
				JOINT mixamorig:LeftShoulder
				{
					OFFSET	6.1059	9.1104	0.7056
					CHANNELS 3 Zrotation Yrotation Xrotation
					JOINT mixamorig:LeftArm
					{
						OFFSET	12.6532	-0.3431	-2.6009
						CHANNELS 3 Zrotation Yrotation Xrotation
						JOINT mixamorig:LeftForeArm
						{
							OFFSET	27.3517	-0.9645	-1.4034
							CHANNELS 3 Zrotation Yrotation Xrotation
							JOINT mixamorig:LeftHand
							{
								OFFSET	27.5619	-0.7072	1.5500
								CHANNELS 3 Zrotation Yrotation Xrotation
								JOINT mixamorig:LeftHandMiddle1
								{
									OFFSET	12.6630	-1.3962	0.9548
									CHANNELS 3 Zrotation Yrotation Xrotation
									JOINT mixamorig:LeftHandMiddle2
									{
										OFFSET	3.6093	-0.1669	0.0778
										CHANNELS 3 Zrotation Yrotation Xrotation
										JOINT mixamorig:LeftHandMiddle3
										{
											OFFSET	3.4004	-0.6274	0.1148
											CHANNELS 3 Zrotation Yrotation Xrotation
											End Site
											{
												OFFSET 3.6205 -0.6493 0.1199
											}
										}
									}
								}
								JOINT mixamorig:LeftHandThumb1
								{
									OFFSET	3.3268	-2.0474	3.5790
									CHANNELS 3 Zrotation Yrotation Xrotation
									JOINT mixamorig:LeftHandThumb2
									{
										OFFSET	3.4890	-1.4806	2.8548
										CHANNELS 3 Zrotation Yrotation Xrotation
										JOINT mixamorig:LeftHandThumb3
										{
											OFFSET	3.4086	-1.7658	2.1133
											CHANNELS 3 Zrotation Yrotation Xrotation
											End Site
											{
												OFFSET 2.7231 -1.1597 1.7903
											}
										}
									}
								}
								JOINT mixamorig:LeftHandIndex1
								{
									OFFSET	11.9722	-1.1061	3.7324
									CHANNELS 3 Zrotation Yrotation Xrotation
									JOINT mixamorig:LeftHandIndex2
									{
										OFFSET	3.8387	-0.6406	-0.0310
										CHANNELS 3 Zrotation Yrotation Xrotation
										JOINT mixamorig:LeftHandIndex3
										{
											OFFSET	3.3346	-0.7374	-0.0133
											CHANNELS 3 Zrotation Yrotation Xrotation
											End Site
											{
												OFFSET 2.9714 -0.8030 0.0009
											}
										}
									}
								}
								JOINT mixamorig:LeftHandRing1
								{
									OFFSET	12.1659	-1.6805	-1.2769
									CHANNELS 3 Zrotation Yrotation Xrotation
									JOINT mixamorig:LeftHandRing2
									{
										OFFSET	3.5925	-0.2366	-0.0771
										CHANNELS 3 Zrotation Yrotation Xrotation
										JOINT mixamorig:LeftHandRing3
										{
											OFFSET	3.2906	-0.3266	-0.0615
											CHANNELS 3 Zrotation Yrotation Xrotation
											End Site
											{
												OFFSET 3.5423 -0.9211 -0.0200
											}
										}
									}
								}
								JOINT mixamorig:LeftHandPinky1
								{
									OFFSET	11.0508	-2.1872	-3.8040
									CHANNELS 3 Zrotation Yrotation Xrotation
									JOINT mixamorig:LeftHandPinky2
									{
										OFFSET	4.1236	-0.3047	0.1212
										CHANNELS 3 Zrotation Yrotation Xrotation
										JOINT mixamorig:LeftHandPinky3
										{
											OFFSET	2.5805	-0.2597	0.0823
											CHANNELS 3 Zrotation Yrotation Xrotation
											End Site
											{
												OFFSET 2.9027 -0.3379 0.0963
											}
										}
									}
								}
							}
						}
					}
				}
				JOINT mixamorig:RightShoulder
				{
					OFFSET	-6.1057	9.1105	0.7056
					CHANNELS 3 Zrotation Yrotation Xrotation
					JOINT mixamorig:RightArm
					{
						OFFSET	-12.6532	-0.3429	-2.6009
						CHANNELS 3 Zrotation Yrotation Xrotation
						JOINT mixamorig:RightForeArm
						{
							OFFSET	-27.3518	-0.9642	-1.4034
							CHANNELS 3 Zrotation Yrotation Xrotation
							JOINT mixamorig:RightHand
							{
								OFFSET	-27.5619	-0.7068	1.5501
								CHANNELS 3 Zrotation Yrotation Xrotation
								JOINT mixamorig:RightHandMiddle1
								{
									OFFSET	-12.6630	-1.3960	0.9549
									CHANNELS 3 Zrotation Yrotation Xrotation
									JOINT mixamorig:RightHandMiddle2
									{
										OFFSET	-3.6093	-0.1669	0.0778
										CHANNELS 3 Zrotation Yrotation Xrotation
										JOINT mixamorig:RightHandMiddle3
										{
											OFFSET	-3.4004	-0.6273	0.1148
											CHANNELS 3 Zrotation Yrotation Xrotation
											End Site
											{
												OFFSET -3.6205 -0.6492 0.1199
											}
										}
									}
								}
								JOINT mixamorig:RightHandThumb1
								{
									OFFSET	-3.3269	-2.0474	3.5790
									CHANNELS 3 Zrotation Yrotation Xrotation
									JOINT mixamorig:RightHandThumb2
									{
										OFFSET	-3.4890	-1.4805	2.8548
										CHANNELS 3 Zrotation Yrotation Xrotation
										JOINT mixamorig:RightHandThumb3
										{
											OFFSET	-3.4086	-1.7658	2.1133
											CHANNELS 3 Zrotation Yrotation Xrotation
											End Site
											{
												OFFSET -2.7231 -1.1596 1.7903
											}
										}
									}
								}
								JOINT mixamorig:RightHandIndex1
								{
									OFFSET	-11.9722	-1.1059	3.7324
									CHANNELS 3 Zrotation Yrotation Xrotation
									JOINT mixamorig:RightHandIndex2
									{
										OFFSET	-3.8387	-0.6406	-0.0310
										CHANNELS 3 Zrotation Yrotation Xrotation
										JOINT mixamorig:RightHandIndex3
										{
											OFFSET	-3.3346	-0.7373	-0.0133
											CHANNELS 3 Zrotation Yrotation Xrotation
											End Site
											{
												OFFSET -2.9715 -0.8029 0.0009
											}
										}
									}
								}
								JOINT mixamorig:RightHandRing1
								{
									OFFSET	-12.1659	-1.6803	-1.2769
									CHANNELS 3 Zrotation Yrotation Xrotation
									JOINT mixamorig:RightHandRing2
									{
										OFFSET	-3.5925	-0.2366	-0.0771
										CHANNELS 3 Zrotation Yrotation Xrotation
										JOINT mixamorig:RightHandRing3
										{
											OFFSET	-3.2906	-0.3265	-0.0615
											CHANNELS 3 Zrotation Yrotation Xrotation
											End Site
											{
												OFFSET -3.5423 -0.9210 -0.0200
											}
										}
									}
								}
								JOINT mixamorig:RightHandPinky1
								{
									OFFSET	-11.0508	-2.1870	-3.8040
									CHANNELS 3 Zrotation Yrotation Xrotation
									JOINT mixamorig:RightHandPinky2
									{
										OFFSET	-4.1236	-0.3046	0.1212
										CHANNELS 3 Zrotation Yrotation Xrotation
										JOINT mixamorig:RightHandPinky3
										{
											OFFSET	-2.5805	-0.2597	0.0823
											CHANNELS 3 Zrotation Yrotation Xrotation
											End Site
											{
												OFFSET -2.9027 -0.3379 0.0963
											}
										}
									}
								}
							}
						}
					}
				}
			}
		}
	}
	JOINT mixamorig:RightUpLeg
	{
		OFFSET	-9.1245	-6.6564	-0.0554
		CHANNELS 3 Zrotation Yrotation Xrotation
		JOINT mixamorig:RightLeg
		{
			OFFSET	0.0000	-40.5610	-1.7662
			CHANNELS 3 Zrotation Yrotation Xrotation
			JOINT mixamorig:RightFoot
			{
				OFFSET	0.4978	-41.9625	-3.3512
				CHANNELS 3 Zrotation Yrotation Xrotation
				JOINT mixamorig:RightToeBase
				{
					OFFSET	-0.3734	-10.4922	12.6406
					CHANNELS 3 Zrotation Yrotation Xrotation
					End Site
					{
						OFFSET 0.0000 0.0000 9.9925
					}
				}
			}
		}
	}
	JOINT mixamorig:LeftUpLeg
	{
		OFFSET	9.1245	-6.6564	-0.0554
		CHANNELS 3 Zrotation Yrotation Xrotation
		JOINT mixamorig:LeftLeg
		{
			OFFSET	-0.0000	-40.5610	-1.7662
			CHANNELS 3 Zrotation Yrotation Xrotation
			JOINT mixamorig:LeftFoot
			{
				OFFSET	-0.4978	-41.9625	-3.3512
				CHANNELS 3 Zrotation Yrotation Xrotation
				JOINT mixamorig:LeftToeBase
				{
					OFFSET	0.3734	-10.4922	12.6406
					CHANNELS 3 Zrotation Yrotation Xrotation
					End Site
					{
						OFFSET -0.0000 0.0000 9.9925
					}
				}
			}
		}
	}
}
MOTION
Frames: 7
Frame Time: 0.0333333
-0.0431 98.2709 -0.1899 1.7545 -11.4507 -3.9833 -1.0676 -1.1663 3.4974 -0.4235 -0.3345 1.4285 -0.2131 -0.3667 1.4270 0.5731 1.1399 1.0654 -2.8602 10.7041 -1.6859 0.0000 -0.0000 0.0000 0.0000 -0.0000 0.0000 0.0000 -0.0000 0.0000 -22.7189 -11.2657 4.2609 -48.6836 -11.9679 19.4588 -0.0650 -40.9934 -1.2791 -5.2792 -17.9697 -140.7356 -68.9947 -4.0398 3.6157 -48.8485 -1.9541 1.9947 -46.0158 -2.0734 1.9762 4.1789 -35.3514 25.2567 1.7671 -6.6536 -4.6392 9.6678 4.5657 -3.9034 -54.8364 -8.3371 1.7038 -68.1573 -3.2456 0.9709 -19.4387 -0.9360 -0.1018 -71.2141 -4.0374 3.6427 -55.9144 -3.1744 0.1935 -18.0169 -0.8069 -0.2322 -80.1987 -3.7170 4.2538 -49.1646 -2.0057 2.2577 -11.8018 -0.6422 0.3778 7.5261 12.5637 3.3828 44.2565 22.2475 39.8044 -6.7891 80.3127 -8.6767 24.1315 -11.8576 -23.7397 50.2467 4.7268 2.8128 93.5966 3.4188 5.8877 34.9155 2.4427 1.4451 13.2982 28.3336 65.6723 -6.5151 -23.8291 10.1589 -14.9760 -41.5534 14.2037 16.5672 8.8383 -0.6016 38.0133 2.7664 0.1669 64.5458 4.3208 1.3283 55.8699 1.9533 3.3300 98.5312 5.9978 3.4733 23.1453 1.7757 -0.2324 59.6531 -0.6999 3.9132 60.9889 3.2816 3.5296 56.6987 3.2046 3.2024 -4.3941 -13.9593 -4.0824 -6.4159 -7.9361 20.4692 5.7316 -2.5863 -10.9666 0.0000 0.0000 -1.2182 3.1269 11.5372 -11.7522 4.4137 9.1998 11.2863 -5.4909 0.9388 4.8010 0.0000 0.0000 2.4657 
-0.0176 98.2769 -0.1731 1.7543 -11.4511 -3.9692 -1.0668 -1.1669 3.4686 -0.3887 -0.3356 1.3996 -0.2132 -0.3666 1.4492 0.5731 1.1399 1.0654 -2.8726 10.7037 -1.6882 0.0000 -0.0000 0.0000 0.0000 -0.0000 0.0000 0.0000 -0.0000 0.0000 -22.7189 -11.2657 4.2609 -48.6925 -11.9295 19.4847 -0.0630 -41.0599 -1.2822 -5.2385 -17.9243 -140.7620 -68.9947 -4.0398 3.6157 -48.8485 -1.9542 1.9948 -46.0158 -2.0734 1.9762 4.1790 -35.3514 25.2567 1.7670 -6.6536 -4.6392 9.6678 4.5657 -3.9034 -54.8364 -8.3371 1.7038 -68.1573 -3.2456 0.9709 -19.4387 -0.9360 -0.1018 -71.2141 -4.0375 3.6427 -55.9144 -3.1744 0.1934 -18.0170 -0.8069 -0.2322 -80.1987 -3.7169 4.2538 -49.1646 -2.0057 2.2577 -11.8018 -0.6422 0.3777 7.5261 12.5637 3.3828 44.2419 22.2088 39.7742 -6.8180 80.3442 -8.7060 24.1742 -11.8564 -23.7199 50.2467 4.7268 2.8128 93.5966 3.4188 5.8877 34.9155 2.4427 1.4451 13.2982 28.3336 65.6723 -6.5152 -23.8291 10.1589 -14.9759 -41.5534 14.2037 16.5672 8.8383 -0.6016 38.0133 2.7664 0.1669 64.5458 4.3208 1.3283 55.8699 1.9533 3.3301 98.5312 5.9978 3.4733 23.1453 1.7757 -0.2324 59.6531 -0.6999 3.9132 60.9889 3.2816 3.5296 56.6987 3.2046 3.2024 -4.4122 -13.9591 -4.0690 -6.4099 -7.9406 20.4257 5.7352 -2.5886 -10.9418 0.0000 0.0000 -1.2183 3.1072 11.5330 -11.7441 4.3943 9.1431 11.2526 -5.4709 1.0068 4.7999 0.0000 0.0000 2.4657 
0.0071 98.2838 -0.1566 1.7541 -11.4514 -3.9553 -1.0660 -1.1674 3.4384 -0.3525 -0.3332 1.3696 -0.2134 -0.3665 1.4724 0.5731 1.1399 1.0654 -2.8849 10.7034 -1.6905 0.0000 -0.0000 0.0000 0.0000 -0.0000 0.0000 0.0000 -0.0000 0.0000 -22.7190 -11.2657 4.2609 -48.7004 -11.8871 19.5108 -0.0609 -41.1334 -1.2855 -5.1969 -17.8745 -140.7891 -68.9947 -4.0398 3.6157 -48.8485 -1.9542 1.9948 -46.0158 -2.0734 1.9761 4.1790 -35.3514 25.2567 1.7670 -6.6536 -4.6392 9.6678 4.5657 -3.9034 -54.8364 -8.3371 1.7038 -68.1573 -3.2456 0.9709 -19.4387 -0.9360 -0.1018 -71.2141 -4.0374 3.6427 -55.9144 -3.1744 0.1934 -18.0169 -0.8069 -0.2322 -80.1986 -3.7169 4.2538 -49.1646 -2.0057 2.2576 -11.8018 -0.6422 0.3778 7.5261 12.5637 3.3828 44.2269 22.1688 39.7430 -6.8485 80.3776 -8.7370 24.2190 -11.8552 -23.7005 50.2467 4.7268 2.8128 93.5966 3.4188 5.8877 34.9155 2.4427 1.4451 13.2982 28.3336 65.6723 -6.5152 -23.8291 10.1589 -14.9759 -41.5534 14.2037 16.5672 8.8383 -0.6016 38.0133 2.7664 0.1669 64.5458 4.3208 1.3283 55.8699 1.9532 3.3301 98.5312 5.9978 3.4733 23.1453 1.7757 -0.2324 59.6531 -0.6999 3.9132 60.9889 3.2816 3.5296 56.6987 3.2045 3.2024 -4.4301 -13.9586 -4.0520 -6.4028 -7.9460 20.3749 5.7387 -2.5911 -10.9134 0.0000 -0.0000 -1.2182 3.0874 11.5281 -11.7280 4.3706 9.0837 11.2026 -5.4483 1.0784 4.8085 0.0000 0.0000 2.4657 
0.0310 98.2915 -0.1404 1.7541 -11.4518 -3.9416 -1.0653 -1.1680 3.4069 -0.3151 -0.3308 1.3387 -0.2135 -0.3664 1.4965 0.5731 1.1399 1.0654 -2.8956 10.7036 -1.6822 0.0000 -0.0000 0.0000 0.0000 -0.0000 0.0000 0.0000 -0.0000 0.0000 -22.7189 -11.2657 4.2609 -48.7078 -11.8412 19.5364 -0.0585 -41.2131 -1.2891 -5.1549 -17.8205 -140.8159 -68.9947 -4.0398 3.6157 -48.8484 -1.9541 1.9948 -46.0158 -2.0734 1.9762 4.1790 -35.3514 25.2567 1.7670 -6.6536 -4.6392 9.6678 4.5657 -3.9034 -54.8364 -8.3371 1.7038 -68.1573 -3.2456 0.9709 -19.4387 -0.9360 -0.1018 -71.2141 -4.0374 3.6427 -55.9144 -3.1744 0.1934 -18.0169 -0.8069 -0.2322 -80.1986 -3.7169 4.2538 -49.1646 -2.0057 2.2577 -11.8018 -0.6422 0.3778 7.5261 12.5637 3.3828 44.2116 22.1278 39.7108 -6.8811 80.4128 -8.7700 24.2659 -11.8542 -23.6815 50.2467 4.7268 2.8128 93.5966 3.4188 5.8877 34.9155 2.4427 1.4451 13.2982 28.3336 65.6723 -6.5151 -23.8291 10.1589 -14.9760 -41.5535 14.2037 16.5672 8.8383 -0.6016 38.0133 2.7664 0.1669 64.5458 4.3208 1.3283 55.8699 1.9532 3.3301 98.5312 5.9978 3.4733 23.1453 1.7757 -0.2324 59.6531 -0.6999 3.9132 60.9889 3.2816 3.5296 56.6987 3.2046 3.2024 -4.4476 -13.9579 -4.0314 -6.3950 -7.9525 20.3173 5.7420 -2.5935 -10.8821 0.0000 -0.0000 -1.2182 3.0676 11.5226 -11.7064 4.3443 9.0216 11.1411 -5.4248 1.1527 4.8229 0.0000 -0.0000 2.4657 
0.0542 98.2998 -0.1244 1.7541 -11.4522 -3.9280 -1.0646 -1.1686 3.3743 -0.2768 -0.3282 1.3070 -0.2137 -0.3663 1.5214 0.5731 1.1399 1.0654 -2.9060 10.7040 -1.6728 0.0000 -0.0000 0.0000 0.0000 -0.0000 0.0000 0.0000 -0.0000 0.0000 -22.7189 -11.2657 4.2609 -48.7149 -11.7920 19.5609 -0.0559 -41.2982 -1.2930 -5.1131 -17.7629 -140.8418 -68.9948 -4.0398 3.6157 -48.8485 -1.9541 1.9948 -46.0158 -2.0734 1.9762 4.1790 -35.3514 25.2567 1.7670 -6.6536 -4.6392 9.6678 4.5657 -3.9034 -54.8364 -8.3371 1.7038 -68.1573 -3.2456 0.9709 -19.4387 -0.9360 -0.1018 -71.2141 -4.0374 3.6427 -55.9144 -3.1744 0.1934 -18.0169 -0.8069 -0.2322 -80.1987 -3.7169 4.2538 -49.1646 -2.0057 2.2577 -11.8018 -0.6422 0.3778 7.5261 12.5637 3.3828 44.1959 22.0858 39.6778 -6.9153 80.4496 -8.8047 24.3145 -11.8532 -23.6627 50.2467 4.7268 2.8128 93.5966 3.4188 5.8877 34.9155 2.4427 1.4451 13.2982 28.3336 65.6723 -6.5151 -23.8291 10.1589 -14.9759 -41.5534 14.2037 16.5672 8.8383 -0.6016 38.0133 2.7664 0.1670 64.5458 4.3208 1.3283 55.8699 1.9532 3.3301 98.5312 5.9978 3.4733 23.1453 1.7757 -0.2324 59.6531 -0.6999 3.9132 60.9889 3.2816 3.5296 56.6987 3.2046 3.2024 -4.4646 -13.9571 -4.0073 -6.3862 -7.9602 20.2529 5.7471 -2.5955 -10.8473 0.0000 0.0000 -1.2182 3.0466 11.5164 -11.6811 4.3163 8.9579 11.0711 -5.3994 1.2283 4.8419 0.0000 -0.0000 2.4657 
0.0768 98.3088 -0.1086 1.7542 -11.4525 -3.9146 -1.0640 -1.1691 3.3408 -0.2376 -0.3256 1.2747 -0.2139 -0.3662 1.5469 0.5731 1.1399 1.0654 -2.9165 10.7043 -1.6635 0.0000 -0.0000 0.0000 0.0000 -0.0000 0.0000 0.0000 -0.0000 0.0000 -22.7189 -11.2657 4.2609 -48.7215 -11.7403 19.5853 -0.0532 -41.3877 -1.2971 -5.0708 -17.7024 -140.8680 -68.9947 -4.0398 3.6157 -48.8485 -1.9542 1.9948 -46.0158 -2.0734 1.9762 4.1790 -35.3514 25.2567 1.7670 -6.6536 -4.6392 9.6678 4.5657 -3.9034 -54.8364 -8.3371 1.7038 -68.1573 -3.2456 0.9709 -19.4387 -0.9360 -0.1018 -71.2141 -4.0374 3.6427 -55.9144 -3.1744 0.1935 -18.0169 -0.8069 -0.2322 -80.1986 -3.7170 4.2538 -49.1646 -2.0057 2.2577 -11.8018 -0.6422 0.3778 7.5261 12.5637 3.3828 44.1800 22.0431 39.6441 -6.9510 80.4876 -8.8409 24.3646 -11.8523 -23.6441 50.2467 4.7268 2.8128 93.5966 3.4188 5.8877 34.9155 2.4427 1.4451 13.2982 28.3336 65.6723 -6.5151 -23.8291 10.1589 -14.9759 -41.5534 14.2037 16.5672 8.8383 -0.6016 38.0133 2.7664 0.1669 64.5458 4.3208 1.3282 55.8699 1.9532 3.3301 98.5312 5.9978 3.4733 23.1453 1.7757 -0.2324 59.6531 -0.6999 3.9132 60.9889 3.2816 3.5296 56.6987 3.2046 3.2024 -4.4817 -13.9560 -3.9810 -6.3802 -7.9766 20.1847 5.7528 -2.5926 -10.8097 0.0000 -0.0000 -1.2182 3.0253 11.5096 -11.6515 4.2873 8.8955 10.9923 -5.3727 1.3046 4.8657 0.0000 -0.0000 2.4657 
0.0988 98.3182 -0.0930 1.7543 -11.4529 -3.9013 -1.0634 -1.1697 3.3065 -0.1978 -0.3228 1.2419 -0.2140 -0.3661 1.5729 0.5731 1.1399 1.0654 -2.9269 10.7047 -1.6540 0.0000 -0.0000 0.0000 0.0000 -0.0000 0.0000 0.0000 -0.0000 0.0000 -22.7189 -11.2657 4.2609 -48.7274 -11.6862 19.6100 -0.0503 -41.4818 -1.3014 -5.0277 -17.6389 -140.8946 -68.9948 -4.0398 3.6157 -48.8485 -1.9542 1.9948 -46.0158 -2.0734 1.9761 4.1789 -35.3514 25.2567 1.7671 -6.6536 -4.6392 9.6678 4.5657 -3.9034 -54.8364 -8.3371 1.7038 -68.1573 -3.2456 0.9709 -19.4387 -0.9360 -0.1018 -71.2141 -4.0374 3.6427 -55.9144 -3.1744 0.1934 -18.0169 -0.8069 -0.2322 -80.1987 -3.7169 4.2538 -49.1646 -2.0057 2.2577 -11.8018 -0.6422 0.3777 7.5260 12.5637 3.3828 44.1638 21.9997 39.6098 -6.9880 80.5267 -8.8784 24.4160 -11.8515 -23.6256 50.2467 4.7268 2.8128 93.5966 3.4188 5.8877 34.9155 2.4427 1.4451 13.2982 28.3336 65.6723 -6.5151 -23.8291 10.1589 -14.9760 -41.5535 14.2037 16.5672 8.8383 -0.6016 38.0133 2.7664 0.1669 64.5458 4.3208 1.3282 55.8699 1.9532 3.3301 98.5312 5.9978 3.4733 23.1453 1.7757 -0.2324 59.6531 -0.6999 3.9132 60.9889 3.2816 3.5296 56.6987 3.2046 3.2024 -4.4985 -13.9547 -3.9526 -6.3747 -7.9961 20.1131 5.7569 -2.5840 -10.7704 -0.0000 -0.0000 -1.2182 3.0037 11.5031 -11.6184 4.2575 8.8341 10.9068 -5.3451 1.3808 4.8933 0.0000 -0.0000 2.4657 
